<svg id="visual" viewBox="0 0 900 80" width="900" height="80" xmlns="http://www.w3.org/2000/svg" xmlns:xlink="http://www.w3.org/1999/xlink" version="1.1"><path d="M0 40L7.5 37.7C15 35.3 30 30.7 45 28.2C60 25.7 75 25.3 90 27.3C105 29.3 120 33.7 135 32.2C150 30.7 165 23.3 180 21.2C195 19 210 22 225 25.7C240 29.3 255 33.7 270 36.2C285 38.7 300 39.3 315 36.8C330 34.3 345 28.7 360 28.7C375 28.7 390 34.3 405 34.2C420 34 435 28 450 26.3C465 24.7 480 27.3 495 28.7C510 30 525 30 540 31.2C555 32.3 570 34.7 585 34C600 33.3 615 29.7 630 29.5C645 29.3 660 32.7 675 35C690 37.3 705 38.7 720 38.8C735 39 750 38 765 35C780 32 795 27 810 24.5C825 22 840 22 855 24.7C870 27.3 885 32.7 892.5 35.3L900 38L900 81L892.5 81C885 81 870 81 855 81C840 81 825 81 810 81C795 81 780 81 765 81C750 81 735 81 720 81C705 81 690 81 675 81C660 81 645 81 630 81C615 81 600 81 585 81C570 81 555 81 540 81C525 81 510 81 495 81C480 81 465 81 450 81C435 81 420 81 405 81C390 81 375 81 360 81C345 81 330 81 315 81C300 81 285 81 270 81C255 81 240 81 225 81C210 81 195 81 180 81C165 81 150 81 135 81C120 81 105 81 90 81C75 81 60 81 45 81C30 81 15 81 7.5 81L0 81Z" fill="#1d1d2c"></path><path d="M0 23L7.5 26C15 29 30 35 45 37.5C60 40 75 39 90 36.8C105 34.7 120 31.3 135 31.2C150 31 165 34 180 35C195 36 210 35 225 34.2C240 33.3 255 32.7 270 33.2C285 33.7 300 35.3 315 38C330 40.7 345 44.3 360 44.2C375 44 390 40 405 36.2C420 32.3 435 28.7 450 29.8C465 31 480 37 495 40.2C510 43.3 525 43.7 540 43.8C555 44 570 44 585 44.2C600 44.3 615 44.7 630 42.7C645 40.7 660 36.3 675 36.3C690 36.3 705 40.7 720 40.8C735 41 750 37 765 37C780 37 795 41 810 40.5C825 40 840 35 855 35.2C870 35.3 885 40.7 892.5 43.3L900 46L900 81L892.5 81C885 81 870 81 855 81C840 81 825 81 810 81C795 81 780 81 765 81C750 81 735 81 720 81C705 81 690 81 675 81C660 81 645 81 630 81C615 81 600 81 585 81C570 81 555 81 540 81C525 81 510 81 495 81C480 81 465 81 450 81C435 81 420 81 405 81C390 81 375 81 360 81C345 81 330 81 315 81C300 81 285 81 270 81C255 81 240 81 225 81C210 81 195 81 180 81C165 81 150 81 135 81C120 81 105 81 90 81C75 81 60 81 45 81C30 81 15 81 7.5 81L0 81Z" fill="#1b1b28"></path><path d="M0 49L7.5 48.5C15 48 30 47 45 45.8C60 44.7 75 43.3 90 42.8C105 42.3 120 42.7 135 41.5C150 40.3 165 37.7 180 36C195 34.3 210 33.7 225 33.5C240 33.3 255 33.7 270 36C285 38.3 300 42.7 315 42.7C330 42.7 345 38.3 360 39.5C375 40.7 390 47.3 405 47.5C420 47.7 435 41.3 450 40.7C465 40 480 45 495 46.8C510 48.7 525 47.3 540 48C555 48.7 570 51.3 585 50C600 48.7 615 43.3 630 43.2C645 43 660 48 675 48.3C690 48.7 705 44.3 720 43.8C735 43.3 750 46.7 765 46.2C780 45.7 795 41.3 810 39.3C825 37.3 840 37.7 855 39.8C870 42 885 46 892.5 48L900 50L900 81L892.5 81C885 81 870 81 855 81C840 81 825 81 810 81C795 81 780 81 765 81C750 81 735 81 720 81C705 81 690 81 675 81C660 81 645 81 630 81C615 81 600 81 585 81C570 81 555 81 540 81C525 81 510 81 495 81C480 81 465 81 450 81C435 81 420 81 405 81C390 81 375 81 360 81C345 81 330 81 315 81C300 81 285 81 270 81C255 81 240 81 225 81C210 81 195 81 180 81C165 81 150 81 135 81C120 81 105 81 90 81C75 81 60 81 45 81C30 81 15 81 7.5 81L0 81Z" fill="#191a24"></path><path d="M0 46L7.5 47C15 48 30 50 45 51.8C60 53.7 75 55.3 90 56C105 56.7 120 56.3 135 54C150 51.7 165 47.3 180 47.7C195 48 210 53 225 53.7C240 54.3 255 50.7 270 50.8C285 51 300 55 315 55.3C330 55.7 345 52.3 360 50.8C375 49.3 390 49.7 405 48.8C420 48 435 46 450 46.2C465 46.3 480 48.7 495 49.8C510 51 525 51 540 50.5C555 50 570 49 585 48.3C600 47.7 615 47.3 630 47.7C645 48 660 49 675 49.5C690 50 705 50 720 51.5C735 53 750 56 765 57.7C780 59.3 795 59.7 810 58.3C825 57 840 54 855 51.2C870 48.3 885 45.7 892.5 44.3L900 43L900 81L892.5 81C885 81 870 81 855 81C840 81 825 81 810 81C795 81 780 81 765 81C750 81 735 81 720 81C705 81 690 81 675 81C660 81 645 81 630 81C615 81 600 81 585 81C570 81 555 81 540 81C525 81 510 81 495 81C480 81 465 81 450 81C435 81 420 81 405 81C390 81 375 81 360 81C345 81 330 81 315 81C300 81 285 81 270 81C255 81 240 81 225 81C210 81 195 81 180 81C165 81 150 81 135 81C120 81 105 81 90 81C75 81 60 81 45 81C30 81 15 81 7.5 81L0 81Z" fill="#171820"></path><path d="M0 60L7.5 60.8C15 61.7 30 63.3 45 64C60 64.7 75 64.3 90 64C105 63.7 120 63.3 135 63.5C150 63.7 165 64.3 180 64.7C195 65 210 65 225 64.8C240 64.7 255 64.3 270 63.5C285 62.7 300 61.3 315 60.7C330 60 345 60 360 60C375 60 390 60 405 59.8C420 59.7 435 59.3 450 59.3C465 59.3 480 59.7 495 60.7C510 61.7 525 63.3 540 64.5C555 65.7 570 66.3 585 66.5C600 66.7 615 66.3 630 65.7C645 65 660 64 675 63.8C690 63.7 705 64.3 720 64.8C735 65.3 750 65.7 765 65.8C780 66 795 66 810 65C825 64 840 62 855 60.8C870 59.7 885 59.3 892.5 59.2L900 59L900 81L892.5 81C885 81 870 81 855 81C840 81 825 81 810 81C795 81 780 81 765 81C750 81 735 81 720 81C705 81 690 81 675 81C660 81 645 81 630 81C615 81 600 81 585 81C570 81 555 81 540 81C525 81 510 81 495 81C480 81 465 81 450 81C435 81 420 81 405 81C390 81 375 81 360 81C345 81 330 81 315 81C300 81 285 81 270 81C255 81 240 81 225 81C210 81 195 81 180 81C165 81 150 81 135 81C120 81 105 81 90 81C75 81 60 81 45 81C30 81 15 81 7.5 81L0 81Z" fill="#16161c"></path><path d="M0 70L7.5 69.3C15 68.7 30 67.3 45 67.7C60 68 75 70 90 70C105 70 120 68 135 67C150 66 165 66 180 66.3C195 66.7 210 67.3 225 67C240 66.7 255 65.3 270 64.3C285 63.3 300 62.7 315 63.2C330 63.7 345 65.3 360 65.5C375 65.7 390 64.3 405 64C420 63.7 435 64.3 450 65C465 65.7 480 66.3 495 67.7C510 69 525 71 540 70.7C555 70.3 570 67.7 585 67C600 66.3 615 67.7 630 68.8C645 70 660 71 675 70C690 69 705 66 720 64.3C735 62.7 750 62.3 765 63.7C780 65 795 68 810 69.3C825 70.7 840 70.3 855 70.7C870 71 885 72 892.5 72.5L900 73L900 81L892.5 81C885 81 870 81 855 81C840 81 825 81 810 81C795 81 780 81 765 81C750 81 735 81 720 81C705 81 690 81 675 81C660 81 645 81 630 81C615 81 600 81 585 81C570 81 555 81 540 81C525 81 510 81 495 81C480 81 465 81 450 81C435 81 420 81 405 81C390 81 375 81 360 81C345 81 330 81 315 81C300 81 285 81 270 81C255 81 240 81 225 81C210 81 195 81 180 81C165 81 150 81 135 81C120 81 105 81 90 81C75 81 60 81 45 81C30 81 15 81 7.5 81L0 81Z" fill="#141418"></path></svg>